<svg id="Inhalt" xmlns="http://www.w3.org/2000/svg" viewBox="0 0 166 80"><defs><style>.cls-1{fill:#fff;}</style></defs><title>icons_serial_active</title><path class="cls-1" d="M61.77,34.42a5.29,5.29,0,0,0-2.68-.72A2.3,2.3,0,0,0,56.64,36c0,1,.41,1.64,2.66,2.95,2.43,1.39,3.24,2.77,3.24,4.57A4.21,4.21,0,0,1,58,48a7.81,7.81,0,0,1-3.29-.67v-2a6.5,6.5,0,0,0,3,1,2.56,2.56,0,0,0,2.79-2.48c0-1.22-.32-1.91-2.43-3.2-2.84-1.71-3.47-2.68-3.47-4.7,0-2.59,2-3.94,4.37-3.94a8,8,0,0,1,2.84.52Z"/><path class="cls-1" d="M64.83,32.15h7.31v1.71H66.81v5h5.09v1.71H66.81v5.58h5.63v1.71H64.83Z"/><path class="cls-1" d="M74.71,32.15h4A4.4,4.4,0,0,1,82,33.23a4,4,0,0,1,1.17,3A3.59,3.59,0,0,1,80.11,40v0a2,2,0,0,1,1.71,1.53L84,47.85H81.89l-1.8-5.31a2.21,2.21,0,0,0-2.5-1.8h-.9v7.11h-2Zm2,7h1.53a2.65,2.65,0,0,0,2.93-2.77c0-1.76-1.15-2.59-2.88-2.59H76.69Z"/><path class="cls-1" d="M86.09,32.15h2V47.85h-2Z"/><path class="cls-1" d="M97.31,32.15l5.13,15.71h-2.07l-1.26-4.1h-6l-1.26,4.1h-2l5.27-15.71ZM98.6,42l-2.41-7.83h0L93.67,42Z"/><path class="cls-1" d="M104.3,32.15h2v14h5.15v1.71H104.3Z"/></svg>