<svg id="Inhalt" xmlns="http://www.w3.org/2000/svg" viewBox="0 0 80 80"><defs><style>.cls-1{fill:none;stroke:#4794da;stroke-linecap:round;stroke-linejoin:round;stroke-width:2px;}</style></defs><title>icons_analog-output_normal</title><path class="cls-1" d="M40,48.47V25.63a7.13,7.13,0,0,0-7.13-7.13h0a7.13,7.13,0,0,0-7.13,7.13v7.24A7.13,7.13,0,0,1,18.61,40H18.5"/><path class="cls-1" d="M40,48.47v5.9a7.13,7.13,0,0,0,7.13,7.13h0a7.13,7.13,0,0,0,7.13-7.13V47.13A7.13,7.13,0,0,1,61.39,40h.11"/><line class="cls-1" x1="61.5" y1="23.86" x2="55.72" y2="18.5"/><line class="cls-1" x1="61.5" y1="23.86" x2="55.72" y2="29.21"/><line class="cls-1" x1="47.96" y1="23.86" x2="61.5" y2="23.86"/></svg>