<?xml version="1.0" encoding="UTF-8"?>
<svg width="80px" height="80px" viewBox="0 0 80 80" version="1.1" xmlns="http://www.w3.org/2000/svg" xmlns:xlink="http://www.w3.org/1999/xlink">
    <!-- Generator: Sketch 59.1 (86144) - https://sketch.com -->
    <title>icons/tc/motion-pressed</title>
    <desc>Created with Sketch.</desc>
    <defs>
        <linearGradient x1="50%" y1="50%" x2="100%" y2="100%" id="linearGradient-1">
            <stop stop-color="#EFF1F3" offset="0%"></stop>
            <stop stop-color="#AEB9C2" offset="100%"></stop>
        </linearGradient>
    </defs>
    <g id="20191023-lieferung-icons-aus-tc-bereich" stroke="none" stroke-width="1" fill="none" fill-rule="evenodd">
        <g id="Icons-and-Buttons" transform="translate(-592.000000, -449.000000)">
            <g id="icons/tc/motion" transform="translate(592.000000, 449.000000)">
                <g id="backgrounds" fill="url(#linearGradient-1)" fill-opacity="0.01">
                    <rect id="normal" x="0" y="0" width="80" height="80"></rect>
                </g>
                <g id="Group" transform="translate(11.000000, 21.500000)">
                    <path d="M1,27.285473 C0.44771525,27.285473 0,26.8377577 0,26.285473 C0,25.7331882 0.44771525,25.285473 1,25.285473 L1,25.285473 L3.36108732,25.2849753 C3.40902134,24.0311373 3.54703141,22.7903361 3.77309291,21.5693153 C3.86085335,21.0952968 4.27430858,20.7513629 4.75638262,20.7513629 L4.75638262,20.7513629 L11.1985067,20.7513629 L11.9676081,18.7880479 L7.10947343,14.4463374 C6.75339197,14.1281077 6.6720175,13.6025105 6.91519616,13.1915017 C8.62152688,10.3075438 10.8781982,7.77887198 13.5484872,5.7542696 C13.9484297,5.45103484 14.5111886,5.49123619 14.8639659,5.84824239 L14.8639659,5.84824239 L19.4297832,10.4687915 L22.2833331,9.03703223 L22.2833331,1.62983568 C22.2833331,1.19161566 22.5686506,0.804447529 22.9872173,0.674683642 C24.7991427,0.112951292 32.0824199,0.112951292 34.3505451,0.657464225 C34.8001329,0.765397574 35.1171061,1.16747353 35.1171061,1.62983568 L35.1171061,1.62983568 L35.1171061,9.05227455 L36.8837498,9.98840072 L41.8604234,4.84367103 L41.9612649,4.75130853 C42.2941576,4.48565017 42.765612,4.45783818 43.1304272,4.69552025 C46.0019783,6.56637482 48.4780565,8.99521275 50.4043418,11.8299094 C50.6665767,12.2158108 50.6271019,12.7317708 50.3092141,13.0732885 L50.3092141,13.0732885 L45.6794439,18.0472084 L46.7941903,20.750053 L53.3986543,20.750053 L53.5461141,20.7570939 C53.9758782,20.808274 54.3299915,21.133458 54.4104586,21.5679522 C54.6367122,22.7896415 54.7748166,24.0311363 54.8227436,25.2856817 L57.3522988,25.285473 C57.9045835,25.285473 58.3522988,25.7331882 58.3522988,26.285473 C58.3522988,26.8377577 57.9045835,27.285473 57.3522988,27.285473 L57.3522988,27.285473 Z M33.1171061,2.47061158 C30.8796428,2.1845124 26.2860266,2.17959623 24.2833331,2.44772103 L24.2833331,2.44772103 L24.2833331,9.65410176 C24.2833331,10.0323708 24.0698929,10.3782642 23.7317953,10.5479036 L23.7317953,10.5479036 L19.6774842,12.5821408 C19.2903439,12.7763871 18.8221603,12.6993151 18.517715,12.3912203 L18.517715,12.3912203 L14.0692563,7.8894366 C12.1155678,9.48684141 10.4246454,11.3862504 9.06566704,13.5122749 L9.06566704,13.5122749 L13.8186091,17.7599748 C14.1301859,18.0384307 14.2357687,18.4812644 14.0833504,18.8703485 L14.0833504,18.8703485 L12.8118681,22.1161109 C12.6617702,22.4992717 12.2922733,22.7513629 11.8807618,22.7513629 L11.8807618,22.7513629 L5.60301138,22.7513629 C5.4783055,23.5875637 5.39792926,24.4330664 5.36264907,25.285473 L5.36264907,25.285473 L20.7317168,25.2860516 C21.225996,21.1026826 24.7844051,17.8578668 29.1006815,17.8578668 C33.4169578,17.8578668 36.9753669,21.1026826 37.4696461,25.2860516 L52.8211548,25.285473 C52.7858563,24.4326211 52.7054145,23.5866805 52.5805972,22.750053 L52.5805972,22.750053 L46.1249122,22.750053 C45.7198968,22.750053 45.3548763,22.5057527 45.2004523,22.1313322 L45.2004523,22.1313322 L43.5859321,18.2167227 C43.4368868,17.8553435 43.5120781,17.4402491 43.7784158,17.1541133 L43.7784158,17.1541133 L48.2926306,12.3043385 C46.7487393,10.1878453 44.8638598,8.33685562 42.7197308,6.83192568 L42.7197308,6.83192568 L37.7985597,11.9192786 C37.4889659,12.239327 37.005054,12.3161123 36.6115937,12.1076217 L36.6115937,12.1076217 L33.6488886,10.537715 C33.3217081,10.3643454 33.1171061,10.0243775 33.1171061,9.65410176 L33.1171061,9.65410176 Z M29.1006815,19.8578668 C25.890924,19.8578668 23.2306746,22.2105907 22.7503838,25.2855881 L35.4509791,25.2855881 C34.9706883,22.2105907 32.3104389,19.8578668 29.1006815,19.8578668 Z" id="Combined-Shape" fill="#556B7F"></path>
                    <g id="icon-status-copy-2" transform="translate(29.279494, 13.741071) rotate(-90.000000) translate(-29.279494, -13.741071) translate(16.047351, -11.196429)">
                        <g id="normal">
                            <g id="icon-base"></g>
                        </g>
                    </g>
                </g>
            </g>
        </g>
    </g>
</svg>