<svg id="Inhalt" xmlns="http://www.w3.org/2000/svg" viewBox="0 0 80 80">
  <defs>
    <style>
      .cls-1 {
        fill: none;
        stroke: #4794da;
        stroke-linecap: round;
        stroke-linejoin: round;
        stroke-width: 2px;
      }
    </style>
  </defs>
  <title>water-valve_normal</title>
  <g>
    <path class="cls-1" d="M43.7803,61.5a4.76789,4.76789,0,0,1-4.9658-5.0938c0-3.5058,4.9658-8.1816,4.9658-8.1816"/>
    <path class="cls-1" d="M43.7803,61.5c1.4849,0,4.9658-.4815,4.9658-5.0938,0-3.5058-4.9658-8.1816-4.9658-8.1816"/>
  </g>
  <g>
    <path class="cls-1" d="M56.5342,61.5a4.76789,4.76789,0,0,1-4.9658-5.0938c0-3.5058,4.9658-8.1816,4.9658-8.1816"/>
    <path class="cls-1" d="M56.5342,61.5c1.4849,0,4.9658-.4815,4.9658-5.0938,0-3.5058-4.9658-8.1816-4.9658-8.1816"/>
  </g>
  <line class="cls-1" x1="25.045" y1="38.0312" x2="18.5" y2="38.0312"/>
  <line class="cls-1" x1="18.5" y1="29.9785" x2="25.045" y2="29.9785"/>
  <line class="cls-1" x1="61.5" y1="38.0312" x2="59.2447" y2="38.0312"/>
  <line class="cls-1" x1="59.2447" y1="29.9785" x2="61.5" y2="29.9785"/>
  <line class="cls-1" x1="40.7896" y1="38.0312" x2="33.6348" y2="38.0312"/>
  <line class="cls-1" x1="33.6348" y1="29.9785" x2="40.7896" y2="29.9785"/>
  <line class="cls-1" x1="53.7461" y1="38.0312" x2="46.211" y2="38.0312"/>
  <line class="cls-1" x1="46.211" y1="29.9785" x2="53.7461" y2="29.9785"/>
  <rect class="cls-1" x="25.045" y="27.7559" width="8.4101" height="12.2441"/>
  <rect class="cls-1" x="40.7896" y="27.7559" width="5.4214" height="16.2226"/>
  <rect class="cls-1" x="53.8233" y="27.7559" width="5.4214" height="16.2226"/>
  <line class="cls-1" x1="23.712" y1="21.1055" x2="34.7881" y2="21.1055"/>
  <line class="cls-1" x1="29.25" y1="21.1055" x2="29.25" y2="27.1797"/>
  <path class="cls-1" d="M40,21.1055A2.606,2.606,0,1,1,37.3941,18.5,2.60575,2.60575,0,0,1,40,21.1055Z"/>
  <path class="cls-1" d="M23.712,21.1055A2.606,2.606,0,1,1,21.106,18.5,2.60577,2.60577,0,0,1,23.712,21.1055Z"/>
</svg>
