<svg id="Inhalt" xmlns="http://www.w3.org/2000/svg" viewBox="0 0 80 80">
  <defs>
    <style>
      .cls-1 {
        fill: none;
        stroke: #fff;
        stroke-linecap: round;
        stroke-linejoin: round;
        stroke-width: 2px;
      }
    </style>
  </defs>
  <title>water-valve_active</title>
  <g>
    <path class="cls-1" d="M43.78029,61.5a4.76808,4.76808,0,0,1-4.9658-5.0938c0-3.5058,4.9658-8.1816,4.9658-8.1816"/>
    <path class="cls-1" d="M43.78029,61.5c1.4848,0,4.9658-.4815,4.9658-5.0938,0-3.5058-4.9658-8.1816-4.9658-8.1816"/>
  </g>
  <g>
    <path class="cls-1" d="M56.53419,61.5a4.76807,4.76807,0,0,1-4.9658-5.0938c0-3.5058,4.9658-8.1816,4.9658-8.1816"/>
    <path class="cls-1" d="M56.53419,61.5c1.4853,0,4.96581-.4815,4.96581-5.0938,0-3.5058-4.96581-8.1816-4.96581-8.1816"/>
  </g>
  <line class="cls-1" x1="25.04489" y1="38.0312" x2="18.5" y2="38.0312"/>
  <line class="cls-1" x1="18.5" y1="29.9785" x2="25.04489" y2="29.9785"/>
  <line class="cls-1" x1="61.5" y1="38.0312" x2="59.24509" y2="38.0312"/>
  <line class="cls-1" x1="59.24509" y1="29.9785" x2="61.5" y2="29.9785"/>
  <line class="cls-1" x1="40.78959" y1="38.0312" x2="33.63529" y2="38.0312"/>
  <line class="cls-1" x1="33.63529" y1="29.9785" x2="40.78959" y2="29.9785"/>
  <line class="cls-1" x1="53.74659" y1="38.0312" x2="46.21089" y2="38.0312"/>
  <line class="cls-1" x1="46.21089" y1="29.9785" x2="53.74659" y2="29.9785"/>
  <rect class="cls-1" x="25.04489" y="27.7559" width="8.4102" height="12.2441"/>
  <rect class="cls-1" x="40.78959" y="27.7559" width="5.4213" height="16.2226"/>
  <rect class="cls-1" x="53.82369" y="27.7559" width="5.4214" height="16.2226"/>
  <line class="cls-1" x1="23.71189" y1="21.1055" x2="34.78809" y2="21.1055"/>
  <line class="cls-1" x1="29.25" y1="21.1055" x2="29.25" y2="27.1797"/>
  <path class="cls-1" d="M40,21.1055A2.606,2.606,0,1,1,37.39409,18.5,2.60544,2.60544,0,0,1,40,21.1055Z"/>
  <path class="cls-1" d="M23.71189,21.1055A2.60595,2.60595,0,1,1,21.106,18.5,2.60543,2.60543,0,0,1,23.71189,21.1055Z"/>
</svg>
