<svg id="Inhalt" xmlns="http://www.w3.org/2000/svg" viewBox="0 0 80 80">
  <defs>
    <style>
      .cls-1 {
        fill: none;
        stroke: #000;
        stroke-linecap: round;
        stroke-linejoin: round;
        stroke-width: 2px;
      }
    </style>
  </defs>
  <title>water-valve_pressed</title>
  <g>
    <path class="cls-1" d="M43.77918,61.5a4.76812,4.76812,0,0,1-4.9658-5.0938c0-3.5058,4.9658-8.1816,4.9658-8.1816"/>
    <path class="cls-1" d="M43.77918,61.5c1.4854,0,4.9658-.4815,4.9658-5.0938,0-3.5058-4.9658-8.1816-4.9658-8.1816"/>
  </g>
  <g>
    <path class="cls-1" d="M56.5336,61.5a4.76789,4.76789,0,0,1-4.96582-5.0938c0-3.5058,4.96582-8.1816,4.96582-8.1816"/>
    <path class="cls-1" d="M56.5336,61.5c1.48486,0,4.96582-.4815,4.96582-5.0938,0-3.5058-4.96582-8.1816-4.96582-8.1816"/>
  </g>
  <line class="cls-1" x1="25.04388" y1="38.0312" x2="18.49938" y2="38.0312"/>
  <line class="cls-1" x1="18.49938" y1="29.9785" x2="25.04388" y2="29.9785"/>
  <line class="cls-1" x1="61.49942" y1="38.0312" x2="59.24405" y2="38.0312"/>
  <line class="cls-1" x1="59.24405" y1="29.9785" x2="61.49942" y2="29.9785"/>
  <line class="cls-1" x1="40.78898" y1="38.0312" x2="33.63418" y2="38.0312"/>
  <line class="cls-1" x1="33.63418" y1="29.9785" x2="40.78898" y2="29.9785"/>
  <line class="cls-1" x1="53.74551" y1="38.0312" x2="46.20988" y2="38.0312"/>
  <line class="cls-1" x1="46.20988" y1="29.9785" x2="53.74551" y2="29.9785"/>
  <rect class="cls-1" x="25.04388" y="27.7559" width="8.4106" height="12.2441"/>
  <rect class="cls-1" x="40.78898" y="27.7559" width="5.4209" height="16.2226"/>
  <rect class="cls-1" x="53.82266" y="27.7559" width="5.42139" height="16.2226"/>
  <line class="cls-1" x1="23.71088" y1="21.1055" x2="34.78748" y2="21.1055"/>
  <line class="cls-1" x1="29.24938" y1="21.1055" x2="29.24938" y2="27.1797"/>
  <path class="cls-1" d="M39.99938,21.1055A2.606,2.606,0,1,1,37.39348,18.5,2.60575,2.60575,0,0,1,39.99938,21.1055Z"/>
  <path class="cls-1" d="M23.71088,21.1055A2.60575,2.60575,0,1,1,21.10538,18.5,2.60534,2.60534,0,0,1,23.71088,21.1055Z"/>
</svg>
